<svg id="Hostdon" xmlns="http://www.w3.org/2000/svg" viewBox="0 0 600 160"><defs><style>.cls-1{fill:#282c37;}.cls-2{isolation:isolate;}.cls-3{fill:#174d74;}.cls-4{fill:#257cbb;}.cls-5{fill:#216fa8;}</style></defs><title>アートボード 1</title><path class="cls-1" d="M179.75,28.48a2.9,2.9,0,0,1,3.19-2.68h9.15c1.79,0,2.53.82,2.18,2.68l-3.78,20.16c-.16.82.24,1.31,1.13,1.31h19.06a1.45,1.45,0,0,0,1.55-1.31L216,28.48a2.93,2.93,0,0,1,3.26-2.68h9.08c1.86,0,2.53.82,2.18,2.68l-9.88,52.64a2.93,2.93,0,0,1-3.2,2.75h-9.08c-1.86,0-2.58-.9-2.23-2.75L209.92,61c.15-.83-.17-1.31-1.06-1.31H189.8A1.51,1.51,0,0,0,188.18,61L184.4,81.12a3,3,0,0,1-3.2,2.75H172c-1.78,0-2.51-.9-2.16-2.75Z"/><path class="cls-1" d="M244,51.05c1.36-7.23,5.6-10.74,12.75-10.74h22.09c7.15,0,10.07,3.51,8.72,10.74l-4.14,22c-1.35,7.23-5.6,10.81-12.76,10.81H248.55c-7.16,0-10.06-3.58-8.71-10.81Zm22,23.12a2.94,2.94,0,0,0,3.18-2.69l3.54-18.85c.34-1.79-.39-2.68-2.18-2.68h-9.15a2.94,2.94,0,0,0-3.19,2.68l-3.53,18.85c-.34,1.79.39,2.69,2.18,2.69Z"/><path class="cls-1" d="M304.18,56.14l.95-5.09c1.36-7.23,5.6-10.74,12.75-10.74H348c1.79,0,2.53.83,2.18,2.69l-.8,4.26A2.91,2.91,0,0,1,346.21,50H322.54a2.93,2.93,0,0,0-3.18,2.68L319,54.56c-.33,1.79.39,2.68,2.18,2.68h15.62q10.74,0,8.72,10.73l-.95,5.09c-1.36,7.23-5.61,10.81-12.77,10.81H301.66c-1.79,0-2.52-.9-2.17-2.75l.8-4.27a2.94,2.94,0,0,1,3.19-2.68h23.67a3,3,0,0,0,3.19-2.69l.36-1.92c.33-1.79-.39-2.69-2.18-2.69H312.9C305.74,66.87,302.82,63.36,304.18,56.14Z"/><path class="cls-1" d="M368.91,73.06,373,51.32c.17-.89-.23-1.37-1.12-1.37h-2.68c-1.79,0-2.53-.83-2.18-2.69l.8-4.26A2.91,2.91,0,0,1,371,40.31h2.69a1.53,1.53,0,0,0,1.63-1.37l1.27-6.75a2.9,2.9,0,0,1,3.18-2.68h9.15c1.79,0,2.52.9,2.18,2.68l-1.26,6.75c-.17.89.22,1.37,1.05,1.37h3.78c1.79,0,2.53.83,2.18,2.69l-.8,4.26A2.91,2.91,0,0,1,392.85,50h-3.78a1.52,1.52,0,0,0-1.57,1.37l-3.78,20.16c-.33,1.79.32,2.69,2.18,2.69h2.41c1.79,0,2.52.89,2.18,2.68l-.8,4.27a3,3,0,0,1-3.2,2.75h-8.88C370.46,83.87,367.55,80.29,368.91,73.06Z"/><path class="cls-1" d="M447.65,83.87H417.52c-7.16,0-10.07-3.58-8.71-10.81l4.13-22c1.36-7.23,5.59-10.74,12.75-10.74h16.92a1.54,1.54,0,0,0,1.64-1.37l2-10.46a2.9,2.9,0,0,1,3.19-2.68h9.15c1.79,0,2.53.82,2.18,2.68l-9.88,52.64A3,3,0,0,1,447.65,83.87Zm-9.51-12.39,3.54-18.85c.33-1.79-.39-2.68-2.18-2.68h-9.15a2.94,2.94,0,0,0-3.19,2.68l-3.54,18.85c-.33,1.79.39,2.69,2.18,2.69H435A3,3,0,0,0,438.14,71.48Z"/><path class="cls-1" d="M474.1,51.05c1.36-7.23,5.59-10.74,12.75-10.74h22.08c7.16,0,10.08,3.51,8.72,10.74l-4.13,22c-1.35,7.23-5.6,10.81-12.76,10.81H478.68c-7.16,0-10.07-3.58-8.71-10.81Zm22,23.12a2.94,2.94,0,0,0,3.18-2.69l3.54-18.85c.34-1.79-.39-2.68-2.18-2.68h-9.15a2.94,2.94,0,0,0-3.19,2.68l-3.53,18.85c-.34,1.79.39,2.69,2.17,2.69Z"/><path class="cls-1" d="M536.77,43A2.91,2.91,0,0,1,540,40.31H570.1c7.15,0,10.07,3.51,8.71,10.74l-5.64,30.07a3,3,0,0,1-3.2,2.75h-9.15c-1.79,0-2.51-.9-2.16-2.75L564,52.63c.34-1.79-.39-2.68-2.18-2.68h-9.15a2.94,2.94,0,0,0-3.19,2.68l-5.34,28.49a3,3,0,0,1-3.2,2.75h-9.15c-1.79,0-2.52-.9-2.17-2.75Z"/><path class="cls-1" d="M185.86,131.44a1.69,1.69,0,0,1,1.84-1.56c.52,0,.89-.52,1.07-1.56l1.94-11a1.66,1.66,0,0,1,1.83-1.56h5.32c1,0,1.47.52,1.28,1.56l-2.09,11.88c-.74,4.2-3.19,6.28-7.39,6.28h-3c-1,0-1.47-.52-1.28-1.6Zm4-22.52a1.7,1.7,0,0,1,1.84-1.56h11.12l.85-4.84a1.66,1.66,0,0,1,1.83-1.56h5.28c1.08,0,1.47.52,1.29,1.56l-.85,4.84H222.3q1.56,0,1.29,1.56l-.45,2.52a1.68,1.68,0,0,1-1.83,1.56H210.19l-3.69,20.92a1.68,1.68,0,0,1-1.84,1.6h-5.28c-1.08,0-1.47-.52-1.28-1.6L201.79,113H190.67c-1,0-1.46-.52-1.28-1.56Zm27.51,26.6h-3c-4.2,0-5.92-2.08-5.17-6.28l2.09-11.88a1.69,1.69,0,0,1,1.84-1.56h5.31c1.08,0,1.47.52,1.29,1.56l-1.93,11c-.19,1,0,1.56.52,1.56q1.56,0,1.29,1.56l-.44,2.48A1.7,1.7,0,0,1,217.34,135.52Z"/><path class="cls-1" d="M266.07,130.24a4.11,4.11,0,0,1,2-2.72l23.24-14.76.95-5.4H271.67c-1,0-1.48-.48-1.29-1.56l.44-2.48a1.67,1.67,0,0,1,1.84-1.56h27.51c1,0,1.48.48,1.29,1.56l-1.65,9.32a4.08,4.08,0,0,1-2,2.72l-6.93,4.36,8,7.52a3.11,3.11,0,0,1,1.05,2.88l-.8,4.52c-.18,1-.72,1.12-1.61.28l-12.23-11.6L266.79,135c-1.17.72-1.67.6-1.49-.44Z"/><path class="cls-1" d="M379.82,121.44H356.06l-2.2,12.48a1.7,1.7,0,0,1-1.84,1.6H346.7c-1,0-1.47-.52-1.28-1.6l5.4-30.6a1.67,1.67,0,0,1,1.84-1.56H358c1,0,1.48.48,1.29,1.56l-1.93,10.92c-.19,1.08.25,1.56,1.29,1.56h22.19q1.56,0,1.29,1.56l-.44,2.52A1.7,1.7,0,0,1,379.82,121.44Z"/><path class="cls-1" d="M459.82,121.44H436.06l-2.2,12.48a1.7,1.7,0,0,1-1.84,1.6H426.7c-1,0-1.47-.52-1.28-1.6l5.4-30.6a1.67,1.67,0,0,1,1.84-1.56H438c1,0,1.48.48,1.29,1.56l-1.93,10.92c-.19,1.08.25,1.56,1.29,1.56h22.19q1.56,0,1.29,1.56l-.44,2.52A1.7,1.7,0,0,1,459.82,121.44Zm-2.92-13.6h-3c-1.08,0-1.47-.52-1.29-1.56l1.08-6.08a1.64,1.64,0,0,1,1.83-1.56h3c1,0,1.48.48,1.29,1.56l-1.08,6.08A1.68,1.68,0,0,1,456.9,107.84Zm7.64,0h-3q-1.56,0-1.29-1.56l1.08-6.08a1.66,1.66,0,0,1,1.83-1.56h3c1.08,0,1.47.48,1.28,1.56l-1.07,6.08A1.66,1.66,0,0,1,464.54,107.84Z"/><path class="cls-1" d="M505.86,131.44a1.69,1.69,0,0,1,1.84-1.56h22.19a1.7,1.7,0,0,0,1.84-1.56l3.42-19.4a1.68,1.68,0,0,1,1.83-1.56h5.32q1.56,0,1.29,1.56L540,129.24c-.74,4.2-3.18,6.28-7.34,6.28h-26c-1,0-1.47-.52-1.28-1.6Zm5-28.12a1.67,1.67,0,0,1,1.84-1.56h13.75c1,0,1.48.48,1.29,1.56l-.44,2.48a1.67,1.67,0,0,1-1.83,1.56H511.67c-1,0-1.48-.48-1.29-1.56Z"/><g class="cls-2"><polygon class="cls-3" points="52.94 152.86 17.7 132.38 17.59 91.62 52.83 112.1 52.94 152.86"/><polygon class="cls-4" points="52.83 112.1 17.59 91.62 53.06 71.14 88.3 91.62 52.83 112.1"/><polygon class="cls-5" points="88.3 91.62 88.42 132.38 52.94 152.86 52.83 112.1 88.3 91.62"/></g><g class="cls-2"><polygon class="cls-3" points="122.94 152.85 87.7 132.38 87.59 91.62 122.83 112.1 122.94 152.85"/><polygon class="cls-4" points="122.83 112.1 87.59 91.62 123.05 71.14 158.29 91.62 122.83 112.1"/><polygon class="cls-5" points="158.29 91.62 158.41 132.38 122.94 152.85 122.83 112.1 158.29 91.62"/></g><g class="cls-2"><polygon class="cls-3" points="87.94 91.86 52.7 71.38 52.59 30.62 87.83 51.1 87.94 91.86"/><polygon class="cls-4" points="87.83 51.1 52.59 30.62 88.06 10.14 123.3 30.62 87.83 51.1"/><polygon class="cls-5" points="123.3 30.62 123.42 71.38 87.94 91.86 87.83 51.1 123.3 30.62"/></g></svg>